<mxfile host="app.diagrams.net" modified="2023-12-28T15:08:27.006Z" agent="Mozilla/5.0 (Windows NT 10.0; Win64; x64) AppleWebKit/537.36 (KHTML, like Gecko) Chrome/120.0.0.0 Safari/537.36" etag="UptY-BoGaDMs4cu2TLSb" version="22.1.12" type="github">
  <diagram id="prtHgNgQTEPvFCAcTncT" name="Page-1">
    <mxGraphModel dx="3172" dy="964" grid="1" gridSize="10" guides="1" tooltips="1" connect="1" arrows="1" fold="1" page="1" pageScale="1" pageWidth="827" pageHeight="1169" math="0" shadow="0">
      <root>
        <mxCell id="0" />
        <mxCell id="1" parent="0" />
        <mxCell id="dNxyNK7c78bLwvsdeMH5-19" value="&amp;nbsp;Air Meals PLC " style="swimlane;html=1;childLayout=stackLayout;resizeParent=1;resizeParentMax=0;horizontal=0;startSize=20;horizontalStack=0;" parent="1" vertex="1">
          <mxGeometry x="-60" y="20" width="1030" height="290" as="geometry" />
        </mxCell>
        <mxCell id="iolI8BOVlMJaaguG8Dk0-7" style="edgeStyle=orthogonalEdgeStyle;rounded=0;orthogonalLoop=1;jettySize=auto;html=1;" parent="dNxyNK7c78bLwvsdeMH5-19" source="iolI8BOVlMJaaguG8Dk0-5" target="iolI8BOVlMJaaguG8Dk0-8" edge="1">
          <mxGeometry relative="1" as="geometry">
            <mxPoint x="430" y="320" as="targetPoint" />
          </mxGeometry>
        </mxCell>
        <mxCell id="dNxyNK7c78bLwvsdeMH5-20" value="Procurement" style="swimlane;html=1;startSize=20;horizontal=0;" parent="dNxyNK7c78bLwvsdeMH5-19" vertex="1">
          <mxGeometry x="20" width="1010" height="160" as="geometry" />
        </mxCell>
        <mxCell id="jybm4fPGBQml7Ri3tgQ--3" style="edgeStyle=orthogonalEdgeStyle;rounded=0;orthogonalLoop=1;jettySize=auto;html=1;" parent="dNxyNK7c78bLwvsdeMH5-20" target="iolI8BOVlMJaaguG8Dk0-1" edge="1">
          <mxGeometry relative="1" as="geometry">
            <mxPoint x="130" y="140" as="targetPoint" />
            <mxPoint x="90" y="85" as="sourcePoint" />
          </mxGeometry>
        </mxCell>
        <mxCell id="jybm4fPGBQml7Ri3tgQ--1" value="" style="points=[[0.145,0.145,0],[0.5,0,0],[0.855,0.145,0],[1,0.5,0],[0.855,0.855,0],[0.5,1,0],[0.145,0.855,0],[0,0.5,0]];shape=mxgraph.bpmn.event;html=1;verticalLabelPosition=bottom;labelBackgroundColor=#ffffff;verticalAlign=top;align=center;perimeter=ellipsePerimeter;outlineConnect=0;aspect=fixed;outline=standard;symbol=general;" parent="dNxyNK7c78bLwvsdeMH5-20" vertex="1">
          <mxGeometry x="40" y="70" width="50" height="50" as="geometry" />
        </mxCell>
        <mxCell id="iolI8BOVlMJaaguG8Dk0-6" style="edgeStyle=orthogonalEdgeStyle;rounded=0;orthogonalLoop=1;jettySize=auto;html=1;" parent="dNxyNK7c78bLwvsdeMH5-20" source="iolI8BOVlMJaaguG8Dk0-1" target="iolI8BOVlMJaaguG8Dk0-5" edge="1">
          <mxGeometry relative="1" as="geometry" />
        </mxCell>
        <mxCell id="iolI8BOVlMJaaguG8Dk0-1" value="place a food order" style="points=[[0.25,0,0],[0.5,0,0],[0.75,0,0],[1,0.25,0],[1,0.5,0],[1,0.75,0],[0.75,1,0],[0.5,1,0],[0.25,1,0],[0,0.75,0],[0,0.5,0],[0,0.25,0]];shape=mxgraph.bpmn.task;whiteSpace=wrap;rectStyle=rounded;size=10;html=1;taskMarker=abstract;" parent="dNxyNK7c78bLwvsdeMH5-20" vertex="1">
          <mxGeometry x="130" y="60" width="120" height="50" as="geometry" />
        </mxCell>
        <mxCell id="iolI8BOVlMJaaguG8Dk0-5" value="send request for food" style="points=[[0.25,0,0],[0.5,0,0],[0.75,0,0],[1,0.25,0],[1,0.5,0],[1,0.75,0],[0.75,1,0],[0.5,1,0],[0.25,1,0],[0,0.75,0],[0,0.5,0],[0,0.25,0]];shape=mxgraph.bpmn.task;whiteSpace=wrap;rectStyle=rounded;size=10;html=1;taskMarker=abstract;" parent="dNxyNK7c78bLwvsdeMH5-20" vertex="1">
          <mxGeometry x="290" y="60" width="120" height="50" as="geometry" />
        </mxCell>
        <mxCell id="PYNcIkFIWxxrQoFNNcHD-43" style="edgeStyle=orthogonalEdgeStyle;rounded=0;orthogonalLoop=1;jettySize=auto;html=1;" edge="1" parent="dNxyNK7c78bLwvsdeMH5-20" source="iolI8BOVlMJaaguG8Dk0-22" target="PYNcIkFIWxxrQoFNNcHD-37">
          <mxGeometry relative="1" as="geometry" />
        </mxCell>
        <mxCell id="iolI8BOVlMJaaguG8Dk0-22" value="get item recorded" style="points=[[0.25,0,0],[0.5,0,0],[0.75,0,0],[1,0.25,0],[1,0.5,0],[1,0.75,0],[0.75,1,0],[0.5,1,0],[0.25,1,0],[0,0.75,0],[0,0.5,0],[0,0.25,0]];shape=mxgraph.bpmn.task;whiteSpace=wrap;rectStyle=rounded;size=10;html=1;taskMarker=abstract;" parent="dNxyNK7c78bLwvsdeMH5-20" vertex="1">
          <mxGeometry x="490" y="60" width="110" height="50" as="geometry" />
        </mxCell>
        <mxCell id="iolI8BOVlMJaaguG8Dk0-64" value="" style="points=[[0.145,0.145,0],[0.5,0,0],[0.855,0.145,0],[1,0.5,0],[0.855,0.855,0],[0.5,1,0],[0.145,0.855,0],[0,0.5,0]];shape=mxgraph.bpmn.event;html=1;verticalLabelPosition=bottom;labelBackgroundColor=#ffffff;verticalAlign=top;align=center;perimeter=ellipsePerimeter;outlineConnect=0;aspect=fixed;outline=end;symbol=terminate2;" parent="dNxyNK7c78bLwvsdeMH5-20" vertex="1">
          <mxGeometry x="920" y="60" width="50" height="50" as="geometry" />
        </mxCell>
        <mxCell id="PYNcIkFIWxxrQoFNNcHD-44" style="edgeStyle=orthogonalEdgeStyle;rounded=0;orthogonalLoop=1;jettySize=auto;html=1;" edge="1" parent="dNxyNK7c78bLwvsdeMH5-20" source="PYNcIkFIWxxrQoFNNcHD-35" target="iolI8BOVlMJaaguG8Dk0-64">
          <mxGeometry relative="1" as="geometry" />
        </mxCell>
        <mxCell id="PYNcIkFIWxxrQoFNNcHD-35" value="send to warehouse" style="points=[[0.25,0,0],[0.5,0,0],[0.75,0,0],[1,0.25,0],[1,0.5,0],[1,0.75,0],[0.75,1,0],[0.5,1,0],[0.25,1,0],[0,0.75,0],[0,0.5,0],[0,0.25,0]];shape=mxgraph.bpmn.task;whiteSpace=wrap;rectStyle=rounded;size=10;html=1;taskMarker=abstract;" vertex="1" parent="dNxyNK7c78bLwvsdeMH5-20">
          <mxGeometry x="720" y="20" width="110" height="50" as="geometry" />
        </mxCell>
        <mxCell id="PYNcIkFIWxxrQoFNNcHD-41" style="edgeStyle=orthogonalEdgeStyle;rounded=0;orthogonalLoop=1;jettySize=auto;html=1;" edge="1" parent="dNxyNK7c78bLwvsdeMH5-20" source="PYNcIkFIWxxrQoFNNcHD-37" target="PYNcIkFIWxxrQoFNNcHD-35">
          <mxGeometry relative="1" as="geometry" />
        </mxCell>
        <mxCell id="PYNcIkFIWxxrQoFNNcHD-42" style="edgeStyle=orthogonalEdgeStyle;rounded=0;orthogonalLoop=1;jettySize=auto;html=1;" edge="1" parent="dNxyNK7c78bLwvsdeMH5-20" source="PYNcIkFIWxxrQoFNNcHD-37" target="PYNcIkFIWxxrQoFNNcHD-39">
          <mxGeometry relative="1" as="geometry" />
        </mxCell>
        <mxCell id="PYNcIkFIWxxrQoFNNcHD-37" value="" style="points=[[0.25,0.25,0],[0.5,0,0],[0.75,0.25,0],[1,0.5,0],[0.75,0.75,0],[0.5,1,0],[0.25,0.75,0],[0,0.5,0]];shape=mxgraph.bpmn.gateway2;html=1;verticalLabelPosition=bottom;labelBackgroundColor=#ffffff;verticalAlign=top;align=center;perimeter=rhombusPerimeter;outlineConnect=0;outline=none;symbol=none;gwType=exclusive;" vertex="1" parent="dNxyNK7c78bLwvsdeMH5-20">
          <mxGeometry x="627" y="60" width="50" height="50" as="geometry" />
        </mxCell>
        <mxCell id="PYNcIkFIWxxrQoFNNcHD-39" value="send to production dept." style="points=[[0.25,0,0],[0.5,0,0],[0.75,0,0],[1,0.25,0],[1,0.5,0],[1,0.75,0],[0.75,1,0],[0.5,1,0],[0.25,1,0],[0,0.75,0],[0,0.5,0],[0,0.25,0]];shape=mxgraph.bpmn.task;whiteSpace=wrap;rectStyle=rounded;size=10;html=1;taskMarker=abstract;" vertex="1" parent="dNxyNK7c78bLwvsdeMH5-20">
          <mxGeometry x="720" y="100" width="110" height="50" as="geometry" />
        </mxCell>
        <mxCell id="PYNcIkFIWxxrQoFNNcHD-45" style="edgeStyle=orthogonalEdgeStyle;rounded=0;orthogonalLoop=1;jettySize=auto;html=1;entryX=0;entryY=0.5;entryDx=0;entryDy=0;entryPerimeter=0;" edge="1" parent="dNxyNK7c78bLwvsdeMH5-20" source="PYNcIkFIWxxrQoFNNcHD-39" target="iolI8BOVlMJaaguG8Dk0-64">
          <mxGeometry relative="1" as="geometry" />
        </mxCell>
        <mxCell id="PYNcIkFIWxxrQoFNNcHD-34" style="edgeStyle=orthogonalEdgeStyle;rounded=0;orthogonalLoop=1;jettySize=auto;html=1;entryX=0.5;entryY=1;entryDx=0;entryDy=0;entryPerimeter=0;" edge="1" parent="dNxyNK7c78bLwvsdeMH5-19" source="iolI8BOVlMJaaguG8Dk0-8" target="iolI8BOVlMJaaguG8Dk0-22">
          <mxGeometry relative="1" as="geometry" />
        </mxCell>
        <mxCell id="dNxyNK7c78bLwvsdeMH5-21" value="Supplier" style="swimlane;html=1;startSize=20;horizontal=0;" parent="dNxyNK7c78bLwvsdeMH5-19" vertex="1">
          <mxGeometry x="20" y="160" width="1010" height="130" as="geometry" />
        </mxCell>
        <mxCell id="iolI8BOVlMJaaguG8Dk0-8" value="get required item prepared and send" style="points=[[0.25,0,0],[0.5,0,0],[0.75,0,0],[1,0.25,0],[1,0.5,0],[1,0.75,0],[0.75,1,0],[0.5,1,0],[0.25,1,0],[0,0.75,0],[0,0.5,0],[0,0.25,0]];shape=mxgraph.bpmn.task;whiteSpace=wrap;rectStyle=rounded;size=10;html=1;taskMarker=abstract;" parent="dNxyNK7c78bLwvsdeMH5-21" vertex="1">
          <mxGeometry x="290" y="60" width="120" height="55" as="geometry" />
        </mxCell>
        <mxCell id="iolI8BOVlMJaaguG8Dk0-62" style="edgeStyle=orthogonalEdgeStyle;rounded=0;orthogonalLoop=1;jettySize=auto;html=1;entryX=0;entryY=0.5;entryDx=0;entryDy=0;entryPerimeter=0;exitX=0.5;exitY=0;exitDx=0;exitDy=0;exitPerimeter=0;" parent="dNxyNK7c78bLwvsdeMH5-21" source="iolI8BOVlMJaaguG8Dk0-51" edge="1">
          <mxGeometry relative="1" as="geometry">
            <mxPoint x="1390" y="65" as="targetPoint" />
          </mxGeometry>
        </mxCell>
        <mxCell id="iolI8BOVlMJaaguG8Dk0-63" style="edgeStyle=orthogonalEdgeStyle;rounded=0;orthogonalLoop=1;jettySize=auto;html=1;entryX=0;entryY=0.5;entryDx=0;entryDy=0;entryPerimeter=0;exitX=0.5;exitY=1;exitDx=0;exitDy=0;exitPerimeter=0;" parent="dNxyNK7c78bLwvsdeMH5-21" source="iolI8BOVlMJaaguG8Dk0-51" edge="1">
          <mxGeometry relative="1" as="geometry">
            <mxPoint x="1390" y="225" as="targetPoint" />
          </mxGeometry>
        </mxCell>
      </root>
    </mxGraphModel>
  </diagram>
</mxfile>
